<?xml version="1.0" encoding="UTF-8"?>
<svg version="1.1" xmlns="http://www.w3.org/2000/svg" width="600" height="600">
<path d="M0 0 C4.95 0.99 4.95 0.99 10 2 C10 2.66 10 3.32 10 4 C10.928125 3.67 11.85625 3.34 12.8125 3 C16 2 16 2 19 2 C19.99 3.485 19.99 3.485 21 5 C21.99 5.33 22.98 5.66 24 6 C24.99 6.99 24.99 6.99 26 8 C26.99 8.33 27.98 8.66 29 9 C30.98872007 10.76775118 31.88671522 12.18984217 32.2578125 14.84375 C32.45516505 22.62507909 30.97840036 30.49633737 29 38 C30.98 38.495 30.98 38.495 33 39 C34.1127563 42.3155596 33.9007397 44.32161249 32.8125 47.625 C32.57144531 48.40101563 32.33039063 49.17703125 32.08203125 49.9765625 C30.76249971 52.44413411 29.56781248 53.01115296 27 54 C27.25537572 56.1060986 27.52985374 58.20988754 27.8125 60.3125 C27.96332031 61.48425781 28.11414063 62.65601563 28.26953125 63.86328125 C29.05532596 67.23757617 29.31606055 67.98007052 32 70 C35.15771613 70.99560696 35.15771613 70.99560696 38.79296875 71.76171875 C46.85814147 73.72922337 53.93856446 76.99698825 61.3125 80.8125 C62.50791046 81.41061189 63.70387437 82.00761894 64.90039062 82.60351562 C86.89127842 93.77561763 86.89127842 93.77561763 89.7890625 102.32910156 C90.61204572 105.24591205 91.32053618 108.17149254 92 111.125 C92.25563721 112.20394531 92.51127441 113.28289062 92.7746582 114.39453125 C93.28934558 116.58345018 93.79763835 118.7738832 94.29931641 120.96582031 C94.89496193 123.54515223 95.52250334 126.11253409 96.16796875 128.6796875 C106.43059127 171.10617167 101.6450628 205.92174704 81.78125 244.31640625 C78.24430049 251.16721877 75.37932821 257.35099811 74 265 C73.484375 265.845625 72.96875 266.69125 72.4375 267.5625 C70.8060727 270.32883324 70.6024924 272.64768377 70.30859375 275.80859375 C69.58515134 280.94595064 67.86742635 285.69886048 65 290 C65.01799109 292.93554563 65.14955394 295.76684632 65.375 298.6875 C65.96471705 307.73094494 66.07497777 316.71526316 65.96240234 325.77612305 C65.92654693 329.94554577 65.9202992 333.99978416 66.5078125 338.1328125 C67.0666859 342.52396067 66.98699244 346.71195366 66.875 351.125 C66.77259193 358.46758713 67.48611919 364.88642248 69.2734375 372.02734375 C69.90939617 374.62930369 70.30551866 377.08976726 70.5625 379.75 C70.67642006 383.08071951 70.67642006 383.08071951 73 385 C73.39477539 386.84423828 73.39477539 386.84423828 73.59765625 389.0703125 C73.71657227 390.29234375 73.71657227 390.29234375 73.83789062 391.5390625 C73.91201172 392.39242188 73.98613281 393.24578125 74.0625 394.125 C74.21932458 395.79433934 74.37686991 397.46361113 74.53515625 399.1328125 C74.63389038 400.24487061 74.63389038 400.24487061 74.73461914 401.37939453 C75.09382322 404.92649352 75.55778636 408.46229087 76 412 C65.77 412 55.54 412 45 412 C42.76028807 405.2808642 42.76028807 405.2808642 42.03515625 401.87109375 C41.79442383 400.78344727 41.79442383 400.78344727 41.54882812 399.67382812 C41.22397314 398.18001707 40.9036755 396.68520783 40.58789062 395.18945312 C39.62786459 390.89419722 38.40822801 387.73584089 36 384 C33.00102001 376.89269947 30.84382732 369.69191806 29.20703125 362.16796875 C27.25379066 353.57341322 24.70132086 345.2387853 21.90087891 336.88598633 C21.11872681 334.54371399 20.35784636 332.19518243 19.59765625 329.84570312 C16.88909394 321.62497324 14.00446876 314.16149056 9 307 C3.06632415 318.86735169 4.59090888 337.59617751 4.37890625 350.50537109 C4.2382047 357.30301471 4.10297623 363.79404754 1 370 C0.26845574 383.92085689 1.4470495 398.10711876 2 412 C-9.55 412 -21.1 412 -33 412 C-33.103125 407.359375 -33.20625 402.71875 -33.3125 397.9375 C-33.65493725 385.62237183 -34.48243186 373.44598471 -35.76831055 361.18823242 C-37.08702537 348.56191692 -38.05343441 335.91676016 -38.99755859 323.25756836 C-39.11554757 321.67691965 -39.23354854 320.09627184 -39.3515625 318.515625 C-39.40771225 317.7603653 -39.463862 317.00510559 -39.52171326 316.22695923 C-39.8291331 312.13054786 -40.1670305 308.03935323 -40.55078125 303.94921875 C-42.95013141 278.35451815 -41.9003408 254.53706958 -34.5 229.8125 C-33.8853203 227.7357056 -33.27073451 225.65888341 -32.65625 223.58203125 C-31.10727763 218.35517539 -31.10727763 218.35517539 -30.3425293 215.82324219 C-29.23276948 212.08624555 -28.72047594 208.91333679 -29 205 C-29.33 204.67 -29.66 204.34 -30 204 C-30.07060278 197.77283441 -28.55933878 191.68928081 -27.0625 185.6875 C-26.89274658 185.0061499 -26.72299316 184.3247998 -26.5480957 183.62280273 C-25.81942441 180.80141247 -25.05169848 178.11821961 -23.8828125 175.4453125 C-21.29455545 168.27606953 -22.54435576 158.4237856 -24 151 C-24.66 150.67 -25.32 150.34 -26 150 C-26.38865234 151.93166016 -26.38865234 151.93166016 -26.78515625 153.90234375 C-27.91080146 158.97022221 -29.62175004 163.70836316 -31.4375 168.5625 C-33.68398504 174.74807444 -35.56235278 180.75162835 -36.625 187.25 C-39.17882092 202.45203457 -45.00553382 216.5058024 -50.59765625 230.80078125 C-52.17191796 234.84469557 -53.73033209 238.89323706 -55.2421875 242.9609375 C-55.71374268 244.2281665 -55.71374268 244.2281665 -56.19482422 245.52099609 C-57.52850623 249.62718383 -58.47699736 253.67624977 -58 258 C-55.93060081 260.76310428 -55.93060081 260.76310428 -54.265625 262.31640625 C-52.06664899 265.24158729 -52.03086882 268.70127985 -51.5390625 272.25 C-50.8662579 275.68227853 -49.44094323 278.24797636 -47.75390625 281.2734375 C-46.67030574 283.7550511 -47.06929078 285.51810874 -48 288 C-50.6875 288.125 -50.6875 288.125 -54 287 C-56.08286967 283.84071189 -57.56646076 280.49504479 -59 277 C-59.99 277 -60.98 277 -62 277 C-62.57502485 281.45416071 -63.00358657 285.36882624 -60.58203125 289.3046875 C-58.80330249 291.31476478 -56.96556741 293.17332707 -55 295 C-54.195625 295.825 -53.39125 296.65 -52.5625 297.5 C-51.7890625 298.2425 -51.7890625 298.2425 -51 299 C-51.33 299.99 -51.66 300.98 -52 302 C-58.47333955 301.64690875 -63.98706954 300.33771942 -69 296 C-70.57206757 293.08798223 -71.24902909 290.20121904 -72 287 C-72.33555908 286.27280762 -72.67111816 285.54561523 -73.0168457 284.79638672 C-74.21381667 281.39184103 -74.25899858 278.58370349 -74.265625 274.9765625 C-74.26753845 274.31216156 -74.2694519 273.64776062 -74.27142334 272.96322632 C-74.27277893 271.56304545 -74.26912636 270.16285174 -74.26074219 268.76269531 C-74.25006723 266.63837896 -74.26064057 264.51491472 -74.2734375 262.390625 C-74.27211513 261.02343566 -74.26955114 259.65624684 -74.265625 258.2890625 C-74.26336914 257.05881348 -74.26111328 255.82856445 -74.25878906 254.56103516 C-73.98471031 250.7896081 -73.06219934 247.62080367 -72 244 C-71.66512018 241.43841305 -71.39668315 238.86754932 -71.18359375 236.29296875 C-71.12261505 235.57427612 -71.06163635 234.8555835 -70.99880981 234.1151123 C-70.80498564 231.80640947 -70.62129728 229.49702046 -70.4375 227.1875 C-70.30445792 225.59541688 -70.17091141 224.00337584 -70.03686523 222.41137695 C-69.38099858 214.50485336 -68.85031283 206.61683399 -68.5625 198.6875 C-68.12539126 188.55875905 -65.35443531 179.76183541 -60.9921875 170.6640625 C-57.34328561 162.53296311 -56.56008406 154.42371026 -55.8125 145.625 C-55.53777166 142.65780419 -55.25064432 139.69194621 -54.95703125 136.7265625 C-54.88571487 136.00268845 -54.8143985 135.27881439 -54.74092102 134.53300476 C-53.16206193 119.28661705 -50.6365262 104.02298425 -39 93 C-36.15008579 91.03089955 -33.16381737 89.47263171 -30.0625 87.9375 C-28.82028687 87.30352295 -28.82028687 87.30352295 -27.55297852 86.65673828 C-8.31883702 77 -8.31883702 77 -3 77 C-3.762028 75.47594401 -4.52409965 73.95190983 -5.28637695 72.42797852 C-5.93152604 71.13718999 -6.57588817 69.84600784 -7.21948242 68.55444336 C-8.55734138 65.87161097 -9.89910739 63.19350527 -11.28515625 60.53515625 C-15.27421066 52.87556509 -16.30789877 46.50142724 -16 38 C-15.34 38 -14.68 38 -14 38 C-14.14120714 36.06215735 -14.28812873 34.12473045 -14.4375 32.1875 C-14.51871094 31.10855469 -14.59992188 30.02960938 -14.68359375 28.91796875 C-14.90212461 25.94010095 -14.90212461 25.94010095 -16 23 C-16.52180084 16.84275009 -15.77694584 12.06540227 -12 7 C-11.01 6.67 -10.02 6.34 -9 6 C-8.26676204 3.98491642 -8.26676204 3.98491642 -8 2 C-5.36 2.33 -2.72 2.66 0 3 C0 2.01 0 1.02 0 0 Z M69 176 C68.72027344 177.11375 68.44054687 178.2275 68.15234375 179.375 C65.87849482 188.12487876 63.30205941 196.38087108 59.32397461 204.51953125 C55.45224656 212.66459637 55.88259757 219.34309478 57.375 227.9375 C57.65534304 229.63383497 57.93400017 231.33044945 58.2109375 233.02734375 C58.3459668 233.84702637 58.48099609 234.66670898 58.62011719 235.51123047 C59.20296767 239.32972523 59.6045477 243.15790949 60 247 C60.66 247 61.32 247 62 247 C67.69958673 235.17863494 71.05871979 223.46515785 72.46484375 210.46875 C72.98497433 207.09739268 73.85368289 204.34142956 75.125 201.1875 C77.14617578 196.01206504 78.17001489 191.51455549 77 186 C75.37332546 182.38461665 73.52066456 179.06920296 71 176 C70.34 176 69.68 176 69 176 Z " fill="#FEFEFE" transform="translate(283,136)"/>
</svg>
