<svg version="1.1" id="Layer_1" xmlns="http://www.w3.org/2000/svg" xmlns:xlink="http://www.w3.org/1999/xlink" x="0px" y="0px"
	 width="100%" viewBox="0 0 600 600" enable-background="new 0 0 600 600" xml:space="preserve">
<path fill="#FFFFFF" opacity="1.000000" stroke="none" 
	d="
M353.000000,601.000000 
	C235.333328,601.000000 118.166664,601.000000 1.000000,601.000000 
	C1.000000,401.000000 1.000000,201.000000 1.000000,1.000000 
	C201.000000,1.000000 401.000000,1.000000 601.000000,1.000000 
	C601.000000,201.000000 601.000000,401.000000 601.000000,601.000000 
	C518.500000,601.000000 436.000000,601.000000 353.000000,601.000000 
M342.500000,545.000000 
	C404.161743,545.000000 465.823486,545.000427 527.485229,544.999573 
	C536.746216,544.999451 541.999573,539.744690 541.999573,530.480957 
	C542.000183,378.825684 542.000122,227.170425 541.999573,75.515167 
	C541.999512,66.254379 536.744446,61.000469 527.481384,61.000431 
	C381.159058,60.999821 234.836731,60.999817 88.514397,61.000435 
	C79.253357,61.000473 74.000465,66.255234 74.000427,75.519424 
	C73.999825,227.174667 73.999817,378.829926 74.000427,530.485168 
	C74.000465,539.746094 79.255539,544.999451 88.519028,544.999512 
	C172.846024,545.000244 257.173004,545.000000 342.500000,545.000000 
z"/>
<path fill="#424242" opacity="1.000000" stroke="none" 
	d="
M342.000000,545.000000 
	C257.173004,545.000000 172.846024,545.000244 88.519028,544.999512 
	C79.255539,544.999451 74.000465,539.746094 74.000427,530.485168 
	C73.999817,378.829926 73.999825,227.174667 74.000427,75.519424 
	C74.000465,66.255234 79.253357,61.000473 88.514397,61.000435 
	C234.836731,60.999817 381.159058,60.999821 527.481384,61.000431 
	C536.744446,61.000469 541.999512,66.254379 541.999573,75.515167 
	C542.000122,227.170425 542.000183,378.825684 541.999573,530.480957 
	C541.999573,539.744690 536.746216,544.999451 527.485229,544.999573 
	C465.823486,545.000427 404.161743,545.000000 342.000000,545.000000 
M362.526855,507.903961 
	C362.629333,507.604736 362.731842,507.305511 362.979675,506.185028 
	C362.319244,503.192108 361.161621,500.211090 361.089783,497.204102 
	C360.856140,487.423431 357.677856,478.232513 355.918976,468.762726 
	C354.853271,463.025055 353.577393,457.285767 353.106689,451.489471 
	C352.621277,445.512238 353.110687,439.462036 352.953369,433.449554 
	C352.863556,430.016968 352.014557,426.590820 352.068878,423.170685 
	C352.184296,415.897858 353.394867,408.570831 352.802368,401.377563 
	C352.153625,393.501740 351.291199,386.038574 354.822479,378.436401 
	C356.755280,374.275421 355.596161,368.395599 358.060120,364.831818 
	C361.544678,359.791870 361.540894,354.154419 363.486298,348.939545 
	C364.106079,347.277954 364.752014,345.619659 365.502136,344.014130 
	C371.986481,330.135101 378.664124,316.343353 384.942413,302.372040 
	C389.207428,292.880981 388.919373,282.744568 388.006378,272.620239 
	C386.989929,261.348877 386.555603,249.993759 384.890778,238.820724 
	C383.125305,226.972321 380.262207,215.284332 377.777771,203.547623 
	C376.611664,198.039139 375.022522,192.325256 369.797516,189.477554 
	C354.051514,180.895813 339.067352,170.695740 321.058990,166.734299 
	C318.362000,166.141022 315.330383,162.309448 314.481232,159.386780 
	C313.595551,156.338318 312.727783,152.617462 315.992584,149.030960 
	C318.697876,146.059128 319.496155,141.280899 320.790222,137.192474 
	C320.936188,136.731384 318.791626,135.580521 317.752594,134.698425 
	C316.866577,133.946198 315.219543,132.981445 315.326111,132.349823 
	C315.990448,128.412964 317.583649,124.579117 317.849182,120.642342 
	C318.177307,115.778297 320.945923,110.320427 315.976196,106.162292 
	C314.647034,105.050194 312.713196,104.686874 311.284668,103.662308 
	C307.601959,101.020935 304.661591,96.206924 299.046936,99.950928 
	C298.819733,100.102463 298.361481,100.048286 298.067871,99.938118 
	C294.591888,98.633743 291.126801,97.300415 288.447113,96.276024 
	C286.947449,97.452293 285.754089,99.023247 285.056305,98.827507 
	C281.757629,97.902168 278.469696,96.204926 278.447693,101.977730 
	C278.446808,102.208961 278.024017,102.466835 277.761841,102.664673 
	C271.430145,107.443153 270.001770,112.631187 271.856750,120.177071 
	C272.873169,124.311935 274.125275,129.427658 272.585388,132.915237 
	C270.108643,138.524536 270.659607,143.336533 272.821320,148.291885 
	C276.342957,156.364670 280.272003,164.259750 283.964539,172.092834 
	C273.099731,177.363831 262.378998,182.630981 251.599365,187.774643 
	C242.264740,192.228821 238.115250,200.876587 236.293091,209.850601 
	C233.540512,223.406540 232.858276,237.371506 230.894623,251.105225 
	C230.217377,255.841843 228.496613,260.459015 226.973099,265.037750 
	C224.782928,271.619995 221.151642,277.958099 220.249329,284.684021 
	C218.417068,298.341736 218.168121,312.204468 216.930725,325.952484 
	C216.318512,332.754639 214.944199,339.487274 213.949371,346.256439 
	C213.595947,348.661346 213.064499,351.086884 213.112228,353.493164 
	C213.186951,357.259125 214.416718,361.132172 213.844955,364.752655 
	C212.794968,371.401123 214.291870,377.393158 215.469910,383.855591 
	C216.917938,391.799011 221.848282,394.304382 227.669586,396.680115 
	C230.098831,397.671539 233.080109,397.310425 235.810394,397.564301 
	C236.045563,396.893341 236.280731,396.222351 236.515900,395.551392 
	C234.233353,393.427063 232.148682,391.022766 229.625275,389.239197 
	C224.971786,385.950134 223.274338,381.573608 224.059540,376.154785 
	C224.266006,374.729950 225.236191,373.415741 225.855667,372.050751 
	C227.235474,373.021576 229.016098,373.720673 229.901413,375.026672 
	C231.238586,376.999329 231.510361,379.805695 233.069641,381.480743 
	C234.307022,382.810028 236.795990,382.974213 238.729248,383.655701 
	C238.840530,381.910217 239.451645,380.010284 238.968964,378.448364 
	C237.544403,373.838654 235.729675,369.346161 233.984177,364.840118 
	C232.790741,361.759277 231.306046,358.784607 230.235657,355.664948 
	C229.399765,353.228729 227.899216,350.279236 228.590485,348.183319 
	C232.428238,336.547058 237.135162,325.197662 240.981506,313.563934 
	C244.675827,302.389954 247.664444,290.983368 250.999542,279.689758 
	C254.342468,268.369598 257.730316,257.062653 261.098450,245.749939 
	C261.795685,245.810883 262.492920,245.871811 263.190155,245.932739 
	C263.644897,248.984222 264.435059,252.030792 264.479767,255.088287 
	C264.556641,260.342957 264.718781,265.700836 263.819305,270.835724 
	C262.938354,275.864777 260.005157,280.574432 259.386047,285.598450 
	C258.707977,291.101257 254.362686,296.693756 258.906677,302.469666 
	C259.470612,303.186493 259.223541,304.811218 258.920410,305.894379 
	C257.484589,311.025238 256.042633,316.162689 254.337891,321.208252 
	C250.274872,333.233643 247.606384,345.569183 246.061600,358.138245 
	C245.420135,363.357483 245.086853,368.646881 245.089859,373.904114 
	C245.092972,379.332275 245.729034,384.757629 245.981750,390.189148 
	C246.115509,393.063660 245.811005,395.968018 246.071106,398.825531 
	C246.960388,408.594849 248.066193,418.344299 248.979828,428.111603 
	C249.455200,433.193787 249.667709,438.299957 250.056305,443.390930 
	C251.357239,460.434570 252.734528,477.472595 253.964615,494.521271 
	C254.263626,498.665314 254.110992,502.841980 254.095322,507.527832 
	C254.394196,507.623596 254.693054,507.719360 255.921280,507.951965 
	C266.615997,507.903870 277.310699,507.855774 288.523621,507.898163 
	C288.625336,507.601044 288.727081,507.303925 288.977692,506.107208 
	C288.319824,497.096527 286.928009,488.063660 287.199646,479.081085 
	C287.503479,469.034943 289.448578,459.047485 290.434021,449.010406 
	C291.443329,438.729736 292.077301,428.412628 293.030396,418.125854 
	C293.518829,412.853821 294.345306,407.613129 295.077148,401.904907 
	C303.653778,412.089203 306.599854,423.745941 309.999237,435.201324 
	C313.346985,446.482697 316.508636,457.821381 320.010162,469.054474 
	C323.782867,481.157806 330.155975,492.451599 331.182343,505.442352 
	C331.256409,506.380127 333.691772,507.829102 335.051483,507.854584 
	C344.032471,508.022858 353.019562,507.866425 362.526855,507.903961 
z"/>
<path fill="#FFFFFF" opacity="1.000000" stroke="none" 
	d="
M254.166016,507.003632 
	C254.110992,502.841980 254.263626,498.665314 253.964615,494.521271 
	C252.734528,477.472595 251.357239,460.434570 250.056305,443.390930 
	C249.667709,438.299957 249.455200,433.193787 248.979828,428.111603 
	C248.066193,418.344299 246.960388,408.594849 246.071106,398.825531 
	C245.811005,395.968018 246.115509,393.063660 245.981750,390.189148 
	C245.729034,384.757629 245.092972,379.332275 245.089859,373.904114 
	C245.086853,368.646881 245.420135,363.357483 246.061600,358.138245 
	C247.606384,345.569183 250.274872,333.233643 254.337891,321.208252 
	C256.042633,316.162689 257.484589,311.025238 258.920410,305.894379 
	C259.223541,304.811218 259.470612,303.186493 258.906677,302.469666 
	C254.362686,296.693756 258.707977,291.101257 259.386047,285.598450 
	C260.005157,280.574432 262.938354,275.864777 263.819305,270.835724 
	C264.718781,265.700836 264.556641,260.342957 264.479767,255.088287 
	C264.435059,252.030792 263.644897,248.984222 263.190155,245.932739 
	C262.492920,245.871811 261.795685,245.810883 261.098450,245.749939 
	C257.730316,257.062653 254.342468,268.369598 250.999542,279.689758 
	C247.664444,290.983368 244.675827,302.389954 240.981506,313.563934 
	C237.135162,325.197662 232.428238,336.547058 228.590485,348.183319 
	C227.899216,350.279236 229.399765,353.228729 230.235657,355.664948 
	C231.306046,358.784607 232.790741,361.759277 233.984177,364.840118 
	C235.729675,369.346161 237.544403,373.838654 238.968964,378.448364 
	C239.451645,380.010284 238.840530,381.910217 238.729248,383.655701 
	C236.795990,382.974213 234.307022,382.810028 233.069641,381.480743 
	C231.510361,379.805695 231.238586,376.999329 229.901413,375.026672 
	C229.016098,373.720673 227.235474,373.021576 225.855682,372.050751 
	C225.236191,373.415741 224.266006,374.729950 224.059540,376.154785 
	C223.274338,381.573608 224.971786,385.950134 229.625275,389.239197 
	C232.148682,391.022766 234.233353,393.427063 236.515900,395.551392 
	C236.280731,396.222351 236.045563,396.893341 235.810394,397.564301 
	C233.080109,397.310425 230.098831,397.671539 227.669586,396.680115 
	C221.848282,394.304382 216.917938,391.799011 215.469910,383.855591 
	C214.291870,377.393158 212.794968,371.401123 213.844955,364.752655 
	C214.416718,361.132172 213.186951,357.259125 213.112228,353.493164 
	C213.064499,351.086884 213.595947,348.661346 213.949371,346.256439 
	C214.944199,339.487274 216.318512,332.754639 216.930725,325.952484 
	C218.168121,312.204468 218.417068,298.341736 220.249329,284.684021 
	C221.151642,277.958099 224.782928,271.619995 226.973099,265.037750 
	C228.496613,260.459015 230.217377,255.841843 230.894623,251.105225 
	C232.858276,237.371506 233.540512,223.406540 236.293091,209.850601 
	C238.115250,200.876587 242.264740,192.228821 251.599365,187.774643 
	C262.378998,182.630981 273.099731,177.363831 283.964539,172.092834 
	C280.272003,164.259750 276.342957,156.364670 272.821320,148.291885 
	C270.659607,143.336533 270.108643,138.524536 272.585388,132.915237 
	C274.125275,129.427658 272.873169,124.311935 271.856750,120.177071 
	C270.001770,112.631187 271.430145,107.443153 277.761841,102.664673 
	C278.024017,102.466835 278.446808,102.208961 278.447693,101.977730 
	C278.469696,96.204926 281.757629,97.902168 285.056305,98.827507 
	C285.754089,99.023247 286.947449,97.452293 288.447113,96.276024 
	C291.126801,97.300415 294.591888,98.633743 298.067871,99.938118 
	C298.361481,100.048286 298.819733,100.102463 299.046936,99.950928 
	C304.661591,96.206924 307.601959,101.020935 311.284668,103.662308 
	C312.713196,104.686874 314.647034,105.050194 315.976196,106.162292 
	C320.945923,110.320427 318.177307,115.778297 317.849182,120.642342 
	C317.583649,124.579117 315.990448,128.412964 315.326111,132.349823 
	C315.219543,132.981445 316.866577,133.946198 317.752594,134.698425 
	C318.791626,135.580521 320.936188,136.731384 320.790222,137.192474 
	C319.496155,141.280899 318.697876,146.059128 315.992584,149.030960 
	C312.727783,152.617462 313.595551,156.338318 314.481232,159.386780 
	C315.330383,162.309448 318.362000,166.141022 321.058990,166.734299 
	C339.067352,170.695740 354.051514,180.895813 369.797516,189.477554 
	C375.022522,192.325256 376.611664,198.039139 377.777771,203.547623 
	C380.262207,215.284332 383.125305,226.972321 384.890778,238.820724 
	C386.555603,249.993759 386.989929,261.348877 388.006378,272.620239 
	C388.919373,282.744568 389.207428,292.880981 384.942413,302.372040 
	C378.664124,316.343353 371.986481,330.135101 365.502136,344.014130 
	C364.752014,345.619659 364.106079,347.277954 363.486298,348.939545 
	C361.540894,354.154419 361.544678,359.791870 358.060120,364.831818 
	C355.596161,368.395599 356.755280,374.275421 354.822479,378.436401 
	C351.291199,386.038574 352.153625,393.501740 352.802368,401.377563 
	C353.394867,408.570831 352.184296,415.897858 352.068878,423.170685 
	C352.014557,426.590820 352.863556,430.016968 352.953369,433.449554 
	C353.110687,439.462036 352.621277,445.512238 353.106689,451.489471 
	C353.577393,457.285767 354.853271,463.025055 355.918976,468.762726 
	C357.677856,478.232513 360.856140,487.423431 361.089783,497.204102 
	C361.161621,500.211090 362.319244,503.192108 362.730713,506.687805 
	C362.259766,507.350952 362.100739,507.559357 362.004639,507.815796 
	C353.019562,507.866425 344.032471,508.022858 335.051483,507.854584 
	C333.691772,507.829102 331.256409,506.380127 331.182343,505.442352 
	C330.155975,492.451599 323.782867,481.157806 320.010162,469.054474 
	C316.508636,457.821381 313.346985,446.482697 309.999237,435.201324 
	C306.599854,423.745941 303.653778,412.089203 295.077148,401.904907 
	C294.345306,407.613129 293.518829,412.853821 293.030396,418.125854 
	C292.077301,428.412628 291.443329,438.729736 290.434021,449.010406 
	C289.448578,459.047485 287.503479,469.034943 287.199646,479.081085 
	C286.928009,488.063660 288.319824,497.096527 288.727997,506.647522 
	C288.257385,507.346161 288.099762,507.552795 288.005402,507.807678 
	C277.310699,507.855774 266.615997,507.903870 255.362000,507.708801 
	C254.634842,507.250458 254.422607,507.096466 254.166016,507.003632 
M352.063660,334.677521 
	C353.714355,329.627960 355.977448,324.685486 356.882965,319.505646 
	C358.555573,309.937897 359.561249,300.348267 363.695068,291.290314 
	C366.151978,285.906738 361.441895,275.139648 357.333710,272.704346 
	C353.323242,282.878906 349.139587,293.153015 345.248169,303.536621 
	C343.740601,307.559265 342.004639,311.617798 343.887054,316.242706 
	C344.836212,318.574646 344.651215,321.364624 345.001862,323.944397 
	C345.862915,330.279114 346.737183,336.612000 347.606171,342.945587 
	C347.929230,343.020813 348.252289,343.096039 348.575348,343.171265 
	C349.718079,340.606628 350.860809,338.041962 352.063660,334.677521 
z"/>
<path fill="#F4F4F4" opacity="1.000000" stroke="none" 
	d="
M254.130676,507.265747 
	C254.422607,507.096466 254.634842,507.250458 254.897308,507.640381 
	C254.693054,507.719360 254.394196,507.623596 254.130676,507.265747 
z"/>
<path fill="#F4F4F4" opacity="1.000000" stroke="none" 
	d="
M288.264526,507.852905 
	C288.099762,507.552795 288.257385,507.346161 288.653564,507.097321 
	C288.727081,507.303925 288.625336,507.601044 288.264526,507.852905 
z"/>
<path fill="#F4F4F4" opacity="1.000000" stroke="none" 
	d="
M362.265747,507.859863 
	C362.100739,507.559357 362.259766,507.350952 362.658020,507.098419 
	C362.731842,507.305511 362.629333,507.604736 362.265747,507.859863 
z"/>
<path fill="#424242" opacity="1.000000" stroke="none" 
	d="
M352.033630,335.077423 
	C350.860809,338.041962 349.718079,340.606628 348.575348,343.171265 
	C348.252289,343.096039 347.929230,343.020813 347.606171,342.945587 
	C346.737183,336.612000 345.862915,330.279114 345.001862,323.944397 
	C344.651215,321.364624 344.836212,318.574646 343.887054,316.242706 
	C342.004639,311.617798 343.740601,307.559265 345.248169,303.536621 
	C349.139587,293.153015 353.323242,282.878906 357.333710,272.704346 
	C361.441895,275.139648 366.151978,285.906738 363.695068,291.290314 
	C359.561249,300.348267 358.555573,309.937897 356.882965,319.505646 
	C355.977448,324.685486 353.714355,329.627960 352.033630,335.077423 
z"/>
</svg>